PathFileType  4	(X/Y/Z) C:\Users\antoi\Documents\MyRepositories\mobilecap\ResultsAnalysis
DataRate	CameraRate	NumFrames	NumMarkers	Units	OrigDataRate	OrigDataStartFrame	OrigNumFrames
100.0	100.0	6	51	mm	100.0	161	1281
Frame#	Time	r_knee			r_shank_antsup			r_ankle			r_calc			r_5meta			r_toe			L_knee			L_shank_antsup			L_ankle			L_calc			L_5meta			L_toe			r_sh2			r_sh3			r_sh4			L_sh2			L_sh3			r_thigh1			r_thigh2			r_thigh3			r_thigh4			r_thigh5			L_thigh1			L_thigh2			L_thigh3			L_thigh4			r.ASIS			r.PSIS			L.ASIS			L.PSIS			C7			R_Shoulder			L_Shoulder			R_Sternum			L_Sternum			R_humerus			R_elbow_med			R_elbow_lat			R_forearm			R_wrist_radius			R_wrist_ulna			L_humerus			L_elbow_med			L_elbow_lat			L_forearm			L_wrist_radius			L_wrist_ulna			R_HJC			L_HJC			R_HJC_reg			L_HJC_reg			
		X1	Y1	Z1	X2	Y2	Z2	X3	Y3	Z3	X4	Y4	Z4	X5	Y5	Z5	X6	Y6	Z6	X7	Y7	Z7	X8	Y8	Z8	X9	Y9	Z9	X10	Y10	Z10	X11	Y11	Z11	X12	Y12	Z12	X13	Y13	Z13	X14	Y14	Z14	X15	Y15	Z15	X16	Y16	Z16	X17	Y17	Z17	X18	Y18	Z18	X19	Y19	Z19	X20	Y20	Z20	X21	Y21	Z21	X22	Y22	Z22	X23	Y23	Z23	X24	Y24	Z24	X25	Y25	Z25	X26	Y26	Z26	X27	Y27	Z27	X28	Y28	Z28	X29	Y29	Z29	X30	Y30	Z30	X31	Y31	Z31	X32	Y32	Z32	X33	Y33	Z33	X34	Y34	Z34	X35	Y35	Z35	X36	Y36	Z36	X37	Y37	Z37	X38	Y38	Z38	X39	Y39	Z39	X40	Y40	Z40	X41	Y41	Z41	X42	Y42	Z42	X43	Y43	Z43	X44	Y44	Z44	X45	Y45	Z45	X46	Y46	Z46	X47	Y47	Z47	X48	Y48	Z48	X49	Y49	Z49	X50	Y50	Z50	X51	Y51	Z51	

161	1.60000000	-56.09343	436.58563	-332.33501	-13.21916	378.04276	-324.02361	-245.78366	99.48074	-362.18623	-306.80573	59.39696	-413.07851	-139.56691	39.71617	-303.32506	-90.78097	60.05184	-351.82767	-45.30184	433.69052	-816.55233	-33.48753	350.91786	-837.85176	-230.85504	100.14708	-798.18831	-294.79136	58.98788	-747.82183	-123.52643	40.78410	-840.47025	-75.59713	57.59718	-788.25048	-65.59842	277.45648	-340.46635	-81.85479	408.13037	-306.46122	-136.57382	306.12846	-304.02690	-105.98839	402.30182	-834.83218	-169.04815	293.29259	-829.05786	-210.53766	666.26297	-455.47700	-121.13218	614.68838	-415.04801	-132.53650	592.47401	-352.45466	-267.58817	632.14366	-369.03144	-180.98194	568.76310	-334.38131	-259.44446	654.10792	-782.87315	-159.07107	560.66970	-818.26277	-337.25194	571.94876	-776.56696	-232.86278	481.03889	-778.67330	-237.11451	707.42677	-461.23631	-399.66903	797.02849	-544.88741	-233.96916	678.49128	-691.33384	-395.34436	796.07933	-640.94421	-96.89211	1146.52162	-589.24766	-29.81634	1080.77131	-423.35398	-25.83026	1073.49317	-733.98340	-11.60901	1023.60050	-562.65990	-16.39452	1018.86674	-594.64563	-29.28908	903.51060	-276.80777	-62.82869	780.86642	-273.44868	-32.20267	825.60830	-220.96062	83.62486	877.46060	-280.18089	140.56237	929.23861	-341.89441	166.64900	893.92519	-331.84749	-38.71880	884.83553	-862.88691	-56.39114	753.58284	-841.22566	-42.34712	783.74281	-907.81579	78.28812	846.34997	-852.19500	139.91104	908.98195	-793.24763	165.33203	871.50727	-794.09128	-334.66302	654.17610	-490.57528	-339.36335	648.02860	-681.08950	-327.07496	649.94143	-496.05450	-320.19061	648.43050	-648.96679	
162	1.61000000	-56.76256	437.41329	-333.07175	-13.89849	378.72847	-324.99356	-245.82472	99.45072	-362.23340	-306.87787	59.28112	-412.98324	-139.57880	39.69513	-303.36774	-90.82395	60.07089	-351.89512	-45.99514	434.42389	-816.30536	-34.01343	351.29502	-837.23013	-230.87626	100.11747	-798.24033	-294.82996	58.96205	-747.88245	-123.51584	40.79620	-840.46327	-75.62214	57.60090	-788.22960	-66.18125	278.04896	-340.86563	-82.56954	408.72205	-307.22510	-137.08119	306.69876	-304.58480	-106.61428	402.51919	-834.29003	-168.67740	294.49974	-830.02758	-207.44297	670.35758	-455.09875	-118.98104	617.20368	-414.64271	-130.97564	594.67265	-352.39785	-265.47262	636.54312	-368.77245	-179.80262	571.60265	-334.60176	-257.00256	658.60840	-783.07805	-157.90126	563.52884	-818.11345	-335.79170	577.46342	-775.87413	-232.67205	485.03203	-778.04041	-235.23495	713.49610	-461.39029	-398.05034	803.34282	-544.72054	-231.88322	685.07561	-691.39628	-393.84234	802.62260	-640.89485	-99.51929	1156.51752	-588.94357	-32.17336	1091.45122	-423.38163	-27.95869	1084.20553	-734.31277	-12.97800	1034.48471	-562.94293	-17.71232	1029.82080	-594.78750	-33.33024	913.01542	-277.07578	-68.96426	790.91311	-273.82051	-37.47461	835.15815	-221.70454	79.41671	884.35065	-281.04007	137.17832	935.04689	-342.76742	162.54771	899.09120	-333.05101	-42.59459	894.43140	-862.69677	-62.44989	763.63001	-840.71847	-47.60412	793.29226	-907.36383	74.11531	853.74289	-851.24349	136.67218	915.09443	-792.01169	161.41463	877.30120	-793.00691	-332.82865	660.31615	-490.79292	-337.47678	654.61195	-681.32213	-325.04223	656.14578	-496.20325	-318.35442	654.99940	-649.02687	
163	1.62000000	-57.56381	438.30261	-333.92051	-14.63608	379.67496	-325.63247	-245.86866	99.41573	-362.26896	-306.90709	59.22586	-412.93696	-139.56979	39.69997	-303.38350	-90.85701	60.09081	-351.92762	-46.88288	435.27859	-815.87444	-34.66421	351.77683	-836.38663	-230.89056	100.08151	-798.30008	-294.85461	58.92416	-747.92936	-123.50701	40.80614	-840.45461	-75.63644	57.60886	-788.19789	-66.76677	278.78702	-341.36142	-83.43157	409.48782	-308.05985	-137.32495	306.95885	-305.52052	-107.38969	402.96671	-833.90711	-167.86178	296.62232	-832.03805	-204.29880	674.65057	-454.72136	-116.82005	619.66835	-414.55591	-129.38081	596.94524	-352.43714	-263.34242	641.18228	-368.62886	-178.62139	574.57817	-334.90795	-254.44220	663.30379	-783.26900	-156.70567	566.70317	-818.15235	-334.22684	583.30585	-775.32055	-232.51782	489.38833	-777.65238	-233.34000	720.24811	-461.16733	-396.28522	809.89722	-544.65673	-229.63727	692.04123	-691.48584	-392.22364	809.46293	-640.94435	-102.47726	1166.90890	-589.12089	-34.63887	1102.41544	-423.36765	-30.21785	1095.32304	-734.68727	-14.49657	1045.50357	-563.31686	-19.12144	1041.07175	-594.79194	-37.48486	922.78957	-277.48766	-75.43563	801.52054	-274.03905	-42.71112	844.83761	-222.59020	75.02432	891.35647	-282.12764	133.78824	940.95392	-343.77702	158.17540	904.32278	-334.51086	-46.51458	904.34884	-862.33681	-68.68324	774.13094	-839.94783	-53.07745	803.10213	-906.47082	69.73578	861.33743	-850.05561	133.31159	921.48726	-790.70279	157.26482	883.25456	-791.77074	-330.86202	666.94108	-490.88747	-335.32077	661.46933	-681.42850	-322.84665	662.52923	-496.02591	-316.39178	661.83814	-649.05275	
164	1.63000000	-58.51578	439.20448	-334.88326	-15.52548	380.93917	-325.88520	-245.90877	99.43132	-362.22054	-306.91498	59.22542	-412.94551	-139.56264	39.70936	-303.39022	-90.87488	60.11275	-351.94200	-47.92248	436.12409	-815.13134	-35.46463	352.58427	-835.77537	-230.91772	100.04486	-798.41593	-294.88767	58.87771	-747.96144	-123.50326	40.82313	-840.44322	-75.66417	57.63880	-788.12786	-67.44950	279.74106	-341.81802	-84.45861	410.36708	-308.94014	-138.14823	307.90331	-305.82319	-108.33301	403.64556	-833.77717	-167.84810	297.87460	-833.03140	-201.05891	679.21809	-454.36191	-114.91040	621.73265	-415.25454	-127.83717	599.39776	-352.51195	-261.27296	646.12345	-368.49211	-177.39222	577.70319	-335.22745	-251.71769	668.21724	-783.46635	-155.50960	570.02217	-818.17498	-332.68541	589.35510	-774.57246	-232.46542	494.12308	-777.32435	-231.39423	727.53968	-460.40979	-394.36580	816.73530	-544.60914	-227.34796	699.60169	-691.94232	-390.51212	816.53595	-640.91531	-105.47683	1177.58768	-589.23771	-37.17298	1113.71683	-423.29528	-32.59119	1106.77611	-735.00840	-16.08578	1056.88572	-563.49293	-20.47088	1052.58306	-594.86128	-41.73151	932.80613	-278.01151	-82.11051	812.52254	-274.20283	-48.01092	854.69861	-223.40392	70.56472	898.59538	-283.23893	130.36517	946.97620	-344.75700	153.73243	909.68948	-335.94007	-50.50145	914.58919	-861.78873	-75.40231	784.90261	-839.39655	-58.43827	813.49904	-905.18479	65.14609	869.16349	-848.75287	129.80980	928.15615	-789.31139	152.98231	889.39630	-790.50196	-328.71671	673.94123	-490.94442	-332.96128	668.73400	-681.49784	-320.61687	669.20454	-495.39656	-314.46300	668.88639	-649.21551	
165	1.64000000	-59.67364	440.23498	-335.91278	-16.63035	382.25970	-326.45546	-245.97143	99.48178	-362.11950	-306.96399	59.18330	-412.93886	-139.57132	39.71826	-303.39321	-90.89765	60.13835	-351.94854	-49.07602	437.04160	-814.19633	-36.45045	353.59957	-835.35603	-230.97576	100.02723	-798.55733	-294.92814	58.84461	-747.99977	-123.50590	40.84747	-840.43307	-75.70904	57.69045	-788.03394	-68.29000	280.72832	-342.35574	-85.59941	411.35733	-309.76338	-139.31808	309.22691	-305.88764	-109.51742	404.26964	-833.42334	-168.69103	298.11207	-832.72766	-197.63491	683.95521	-454.10101	-113.19358	623.68573	-416.22084	-126.30033	601.99199	-352.54061	-259.17481	651.48964	-368.30490	-176.17839	580.91061	-335.55307	-248.85853	673.41432	-783.61738	-154.37199	573.33459	-817.96473	-331.17288	595.68202	-773.62595	-232.55681	498.89878	-776.56417	-229.13557	734.72674	-459.88243	-392.35727	823.84210	-544.46292	-225.06964	707.83057	-692.88195	-388.63980	823.78923	-640.86787	-108.02225	1188.21978	-588.18378	-39.78354	1125.38424	-423.13289	-35.09882	1118.57497	-735.34723	-17.66194	1068.72531	-563.47512	-21.84842	1064.41850	-595.10014	-46.04474	942.99083	-278.63496	-88.74234	823.63717	-274.92429	-53.51940	864.86033	-224.19414	66.07084	906.09633	-284.34029	126.78942	953.12515	-345.88677	149.27938	915.16958	-337.30884	-54.66585	925.15349	-861.07752	-82.56081	795.85854	-839.02516	-63.72411	824.40120	-903.76020	60.40342	877.19826	-847.31351	126.16506	934.90701	-787.92958	148.73331	895.63503	-789.15557	-326.29853	680.93908	-491.37776	-330.51913	676.50368	-681.94976	-318.37145	676.31335	-495.10155	-312.40555	676.22850	-649.81171	
166	1.65000000	-61.00600	441.45611	-336.96836	-17.90232	383.45833	-327.66613	-246.12051	99.47388	-362.06977	-307.00687	59.15044	-412.92187	-139.57466	39.74260	-303.39977	-90.93861	60.16293	-351.97686	-50.39974	438.15297	-813.27578	-37.66074	354.69034	-834.90035	-231.04797	100.03362	-798.67146	-294.96505	58.81090	-748.02959	-123.50804	40.87191	-840.42580	-75.75325	57.74367	-787.95999	-69.27713	281.63718	-343.14856	-86.87316	412.51762	-310.51307	-140.40410	310.23000	-306.44540	-110.99503	404.86820	-832.75549	-169.66430	298.51214	-832.34512	-194.12032	688.90296	-453.67915	-111.33608	626.21208	-416.46564	-124.70619	604.70758	-352.44660	-256.83215	656.82754	-368.29838	-175.02931	584.21676	-335.96810	-245.89598	678.87763	-783.61808	-153.34832	576.71174	-817.61065	-329.50222	602.45120	-772.83477	-232.75143	503.59295	-775.54138	-226.48475	741.73533	-459.95068	-390.26906	831.15066	-544.27329	-222.70805	716.71093	-694.13513	-386.54245	831.10609	-640.98696	-110.26092	1198.92460	-586.43750	-42.45596	1137.35234	-422.94231	-37.76655	1130.68401	-735.77533	-18.94095	1081.03937	-563.81598	-23.55800	1076.68479	-595.30433	-50.44478	953.35731	-279.31443	-95.33384	834.76054	-276.55671	-59.19538	875.20349	-225.23200	61.36864	913.73599	-285.58137	123.03229	959.36329	-347.31820	144.66558	920.78720	-338.71092	-59.03284	935.99641	-860.26436	-89.48949	807.12654	-838.00143	-69.30302	835.36869	-902.34841	55.56294	885.37623	-845.87637	122.45587	941.70055	-786.57797	144.42857	901.92361	-787.70933	-323.52634	687.86812	-492.29517	-327.89103	684.69792	-682.88920	-316.00299	683.98918	-495.44945	-310.01672	683.91744	-650.79701	
